<svg width="371" height="127" viewBox="0 0 371 127" fill="none" xmlns="http://www.w3.org/2000/svg">
<path d="M32.9381 68.5042C31.8986 67.7916 30.7617 67.1439 29.5274 66.5608C28.358 66.0426 26.7988 65.6215 24.8498 65.2977C16.8588 64.7146 10.7195 61.6376 6.4317 56.0666C2.1439 50.4956 0 42.9812 0 33.5233C0 27.4341 1.29933 21.8307 3.89801 16.7131C6.56164 11.5955 10.2647 7.5468 15.0073 4.56696C19.8149 1.52232 25.337 0 31.5738 0C40.5392 0 47.4907 2.78552 52.4281 8.35655C57.4305 13.8628 59.9318 21.4744 59.9318 31.1913C59.9318 38.3818 58.2752 45.054 54.9618 51.2081C51.7135 57.3622 46.5486 61.5728 39.4673 63.8401L53.8899 72.391H64.1221V76.2778C63.8623 76.4721 63.1801 76.8284 62.0757 77.3466C61.0363 77.8648 59.7369 78.3831 58.1777 78.9013C56.6834 79.4195 55.2217 79.6787 53.7924 79.6787C50.9989 79.6787 48.4327 78.9337 46.0939 77.4437L32.9381 68.5042ZM31.6713 59.3703C37.3883 59.3703 41.5787 57.2002 44.2424 52.86C46.9059 48.455 48.2378 41.7827 48.2378 32.8432C48.2378 26.0414 47.4907 20.7294 45.9965 16.9074C44.5672 13.0206 42.5207 10.3323 39.8571 8.84242C37.2584 7.28769 34.01 6.51033 30.1121 6.51033C26.0842 6.51033 22.7708 7.15813 20.1722 8.45371C17.5735 9.68453 15.4945 12.2109 13.9354 16.0329C12.4412 19.7901 11.694 25.264 11.694 32.4545C11.694 41.6531 13.3831 48.455 16.7614 52.86C20.1397 57.2002 25.1096 59.3703 31.6713 59.3703ZM66.3079 6.02449V1.36037H92.132V6.02449L84.3362 7.57919V37.313C84.3362 43.1431 84.7909 47.5805 85.7005 50.6251C86.675 53.605 88.2989 55.7103 90.5734 56.9411C92.8471 58.1071 96.193 58.6901 100.61 58.6901C104.378 58.6901 107.334 57.9451 109.478 56.4552C111.622 54.9653 113.116 52.698 113.961 49.6534C114.87 46.544 115.326 42.4305 115.326 37.313V7.67637L107.432 6.12165V1.36037H130.625V6.12165L122.732 7.67637V37.313C122.732 43.9852 122.017 49.3619 120.588 53.443C119.159 57.5241 116.625 60.6011 112.987 62.6741C109.413 64.747 104.41 65.7835 97.9795 65.7835C91.7428 65.7835 86.9024 64.7794 83.4591 62.7712C80.0809 60.7631 77.7096 57.7185 76.3453 53.6373C74.981 49.5563 74.2988 44.1148 74.2988 37.313V7.57919L66.3079 6.02449ZM131.403 59.759L137.64 58.3014L158.591 0.777354H165.413L187.436 58.3014L193.868 59.759V64.3259H168.531V59.759L175.743 58.3014L175.45 56.3581L171.747 46.4469H149.432L145.923 56.4552L145.728 58.3014L153.33 59.759V64.3259H131.403V59.759ZM169.701 40.228L161.028 16.5188L160.638 15.0612L160.346 14.7697L159.859 16.7131L151.575 40.228H169.701ZM217.361 65.492C213.268 65.492 209.403 64.9737 205.765 63.9373C202.127 62.836 199.528 61.6376 197.968 60.342V45.4751H203.718L205.374 55.2892C206.739 56.3904 208.525 57.3298 210.734 58.1071C212.943 58.8197 214.989 59.176 216.874 59.176C221.486 59.176 224.799 58.3662 226.814 56.7467C228.827 55.1273 229.834 52.5037 229.834 48.876C229.834 46.8032 229.347 45.0865 228.373 43.7261C227.398 42.3657 226.066 41.2321 224.377 40.3252C222.688 39.3535 220.22 38.2199 216.971 36.9243C212.489 35.24 209.11 33.8472 206.836 32.746C204.562 31.5799 202.516 29.8309 200.697 27.4989C198.943 25.102 198.065 21.9602 198.065 18.0735C198.065 12.632 199.982 8.25938 203.815 4.95563C207.713 1.65188 212.943 0 219.505 0C222.623 0 225.904 0.259118 229.347 0.777354C232.79 1.29559 235.227 1.84621 236.656 2.42923V18.0735H231.296L229.444 8.55088C229.314 8.48611 228.373 8.12982 226.619 7.48202C224.929 6.83423 222.525 6.51033 219.408 6.51033C215.054 6.51033 212.033 7.28769 210.345 8.84242C208.655 10.3323 207.811 12.5025 207.811 15.3527C207.811 17.5552 208.428 19.3691 209.663 20.7942C210.961 22.2193 212.424 23.3206 214.048 24.0979C215.736 24.8105 218.465 25.8794 222.233 27.3045C225.871 28.7297 228.86 30.1548 231.199 31.5799C233.603 33.0051 235.551 34.9161 237.046 37.313C238.605 39.645 239.384 42.5925 239.384 46.1553C239.384 50.6899 238.313 54.4147 236.168 57.3298C234.025 60.1801 231.296 62.253 227.983 63.5486C224.67 64.8442 221.129 65.492 217.361 65.492ZM242.272 59.759L248.508 58.3014L269.46 0.777354H276.281L298.306 58.3014L304.737 59.759V64.3259H279.4V59.759L286.611 58.3014L286.319 56.3581L282.616 46.4469H260.3L256.792 56.4552L256.597 58.3014L264.198 59.759V64.3259H242.272V59.759ZM280.57 40.228L271.896 16.5188L271.506 15.0612L271.214 14.7697L270.727 16.7131L262.444 40.228H280.57ZM308.545 59.759L316.535 58.01V7.57919L308.545 5.92732V1.36037H336.123C342.619 1.36037 347.72 2.65596 351.423 5.24714C355.126 7.83831 356.977 11.9518 356.977 17.5876C356.977 22.6404 355.743 26.5595 353.274 29.3451C350.87 32.0658 347.622 34.3007 343.529 36.0497L356.684 58.01L363.506 59.759V64.3259H352.007C349.473 64.3259 347.655 63.3219 346.55 61.3137L333.687 38.0903H326.573V58.01L334.564 59.759V64.3259H308.545V59.759ZM331.737 32.0658C336.09 32.0658 339.566 30.8674 342.164 28.4705C344.828 26.0737 346.16 22.8348 346.16 18.7536C346.16 14.4135 345.023 11.4659 342.749 9.91122C340.476 8.29177 337.422 7.48202 333.589 7.48202C331.38 7.48202 329.041 7.61158 326.573 7.8707V32.0658H331.737Z" fill="white" fill-opacity="0.94"/>
<path d="M13.7892 123.939L17.7359 123.162V97.8491H11.2555L10.1348 103.096H7.50366V94.7881H33.0356V103.096H30.3557L29.2838 97.8491H22.8033V123.162L26.7501 123.939V126.271H13.7892V123.939ZM45.7943 123.113V97.8978L41.7989 97.0715V94.7881H64.6996V103.096H62.0198L60.9478 97.7517H54.8084L50.813 98.0918V108.781H57.6832L58.5116 105.768H60.7042V114.805H58.5116L57.6832 111.647H50.813V122.87C52.0798 123.097 53.5253 123.21 55.1495 123.21H61.3376L62.507 117.818H65.1382V126.271H41.7989V123.988L45.7943 123.113ZM100.57 116.991V124.765C99.109 125.38 97.5825 125.882 95.9902 126.271C94.4316 126.692 92.3686 126.903 89.8028 126.903C84.9625 126.903 81.3406 125.542 78.9368 122.822C76.5331 120.101 75.3312 116.134 75.3312 110.919C75.3312 107.873 75.9646 105.072 77.2315 102.513C78.4983 99.922 80.2849 97.8813 82.5912 96.3921C84.9301 94.869 87.6097 94.1078 90.6306 94.1078C92.6451 94.1078 94.4802 94.2375 96.1367 94.4967C97.8261 94.7559 99.239 95.096 100.375 95.517V103.485H97.5981L96.5753 98.1892C94.6267 97.6386 92.5801 97.3637 90.4356 97.3637C88.1619 97.3637 86.3431 97.8169 84.9788 98.7233C83.6469 99.6306 82.6724 101.055 82.0552 103C81.4706 104.943 81.1782 107.534 81.1782 110.773C81.1782 115.048 81.974 118.287 83.5657 120.49C85.1898 122.692 87.5283 123.794 90.5821 123.794C92.9858 123.794 94.6102 123.534 95.4545 123.016C96.2988 122.498 96.7374 122.223 96.7703 122.191L97.7932 116.991H100.57ZM111.258 123.939L115.254 123.162V97.8978L111.258 97.1202V94.7881H124.269V97.1202L120.272 97.8978V108.587H134.305V97.8978L130.31 97.1202V94.7881H143.32V97.1202L139.324 97.8978V123.162L143.32 123.939V126.271H130.31V123.939L134.305 123.162V111.599H120.272V123.162L124.269 123.939V126.271H111.258V123.939ZM153.935 126.271V124.036L157.492 123.21V97.8491L154.325 97.1689V94.7881H162.608L177.177 117.818L177.712 118.692H178.054V97.8491L174.546 97.0236V94.7881H185.119V97.0236L181.562 97.8491V126.271H176.641L161.829 103.047L161.341 102.222H161V123.21L164.557 124.036V126.271H153.935ZM209.556 127C204.814 127 201.176 125.607 198.642 122.822C196.141 120.036 194.89 116.117 194.89 111.064C194.89 107.858 195.507 104.975 196.742 102.416C198.008 99.8255 199.828 97.8004 202.199 96.3434C204.603 94.8533 207.429 94.1078 210.677 94.1078C215.16 94.1078 218.635 95.517 221.104 98.3354C223.606 101.121 224.856 104.975 224.856 109.898C224.856 113.202 224.288 116.149 223.15 118.741C222.046 121.3 220.341 123.324 218.034 124.814C215.761 126.271 212.935 127 209.556 127ZM210.531 123.842C213.487 123.842 215.631 122.789 216.963 120.684C218.327 118.547 219.009 115.291 219.009 110.919C219.009 107.42 218.652 104.684 217.937 102.707C217.222 100.7 216.199 99.307 214.867 98.5294C213.569 97.7517 211.928 97.3637 209.946 97.3637C207.932 97.3637 206.276 97.6873 204.977 98.3354C203.677 98.9826 202.637 100.262 201.858 102.173C201.111 104.052 200.737 106.821 200.737 110.481C200.737 115.243 201.533 118.66 203.125 120.733C204.749 122.806 207.217 123.842 210.531 123.842ZM235.148 123.988L239.143 123.113V97.8978L235.148 97.0715V94.7881H248.45V97.2176L244.162 97.9953V122.919L248.254 123.307H253.809L254.978 118.012H257.61V126.271H235.148V123.988ZM280.824 127C276.082 127 272.444 125.607 269.91 122.822C267.409 120.036 266.158 116.117 266.158 111.064C266.158 107.858 266.775 104.975 268.009 102.416C269.277 99.8255 271.095 97.8004 273.467 96.3434C275.871 94.8533 278.696 94.1078 281.945 94.1078C286.428 94.1078 289.904 95.517 292.372 98.3354C294.873 101.121 296.124 104.975 296.124 109.898C296.124 113.202 295.555 116.149 294.419 118.741C293.315 121.3 291.609 123.324 289.303 124.814C287.029 126.271 284.202 127 280.824 127ZM281.799 123.842C284.755 123.842 286.899 122.789 288.231 120.684C289.595 118.547 290.277 115.291 290.277 110.919C290.277 107.42 289.92 104.684 289.205 102.707C288.491 100.7 287.467 99.307 286.135 98.5294C284.836 97.7517 283.196 97.3637 281.215 97.3637C279.2 97.3637 277.544 97.6873 276.244 98.3354C274.945 98.9826 273.905 100.262 273.126 102.173C272.379 104.052 272.005 106.821 272.005 110.481C272.005 115.243 272.801 118.66 274.393 120.733C276.017 122.806 278.486 123.842 281.799 123.842ZM323.372 112.765V110.481H334.092V113.007L331.948 113.542V126.271H329.853L328.39 124.959H327.806C325.792 126.255 323.242 126.903 320.157 126.903C310.769 126.903 306.075 121.607 306.075 111.015C306.075 107.841 306.708 104.975 307.975 102.416C309.274 99.8255 311.109 97.8004 313.481 96.3434C315.885 94.8533 318.694 94.1078 321.91 94.1078C324.087 94.1078 326.02 94.2705 327.708 94.5941C329.398 94.8855 330.664 95.2091 331.509 95.5657V103.534H328.781L327.465 98.1892C325.808 97.6386 323.81 97.3637 321.471 97.3637C318.028 97.3637 315.576 98.4319 314.114 100.57C312.652 102.707 311.922 106.011 311.922 110.481C311.922 115.08 312.652 118.449 314.114 120.586C315.576 122.725 317.996 123.794 321.374 123.794C322.641 123.794 323.681 123.696 324.492 123.502C325.305 123.275 326.15 122.952 327.026 122.531V113.639L323.372 112.765ZM349.853 123.939L353.8 123.162V114.757L344.25 97.7517L341.18 96.9749V94.7881H353.459V96.9749L349.951 97.7517V98.5781L356.675 111.259H357.309L363.935 98.4807V97.7517L360.183 96.9749V94.7881H371V96.9749L367.931 97.8004L358.867 114.319V123.162L362.815 123.939V126.271H349.853V123.939Z" fill="white" fill-opacity="0.94"/>
</svg>
