<svg width="236" height="68" viewBox="0 0 236 68" fill="none" xmlns="http://www.w3.org/2000/svg">
<g clip-path="url(#clip0)">
<path d="M20.9526 36.6794C20.2913 36.2979 19.5681 35.951 18.7829 35.6388C18.0391 35.3614 17.0472 35.1359 15.8074 34.9625C10.7242 34.6503 6.81886 33.0028 4.09132 30.0199C1.36378 27.037 0 23.0135 0 17.9495C0 14.6891 0.826529 11.6889 2.47959 8.94875C4.17398 6.20863 6.52959 4.04081 9.54642 2.4453C12.6046 0.815101 16.1174 0 20.0847 0C25.7877 0 30.2097 1.49146 33.3505 4.47437C36.5326 7.42262 38.1237 11.4981 38.1237 16.7008C38.1237 20.5509 37.0699 24.1234 34.9622 27.4185C32.8959 30.7136 29.6104 32.9681 25.1059 34.1821L34.2804 38.7605H40.7893V40.8416C40.624 40.9457 40.19 41.1365 39.4875 41.4139C38.8263 41.6914 37.9997 41.9689 37.0079 42.2463C36.0574 42.5238 35.1276 42.6626 34.2183 42.6626C32.4413 42.6626 30.8089 42.2637 29.3212 41.4659L20.9526 36.6794ZM20.1467 31.7888C23.7834 31.7888 26.449 30.6269 28.1434 28.303C29.8377 25.9444 30.685 22.3719 30.685 17.5853C30.685 13.9434 30.2097 11.0992 29.2592 9.0528C28.35 6.97168 27.0482 5.53227 25.3538 4.73452C23.7007 3.90207 21.6344 3.48585 19.1549 3.48585C16.5926 3.48585 14.4849 3.8327 12.8319 4.5264C11.1788 5.18542 9.85636 6.53811 8.86456 8.58453C7.91405 10.5963 7.4388 13.5272 7.4388 17.3772C7.4388 22.3025 8.51326 25.9444 10.6622 28.303C12.8112 30.6269 15.9727 31.7888 20.1467 31.7888ZM42.1797 3.22571V0.728387H58.6068V3.22571L53.6478 4.05815V19.9786C53.6478 23.1003 53.9371 25.4762 54.5157 27.1063C55.1356 28.7019 56.1685 29.8291 57.6154 30.4881C59.0618 31.1125 61.1902 31.4246 64.0001 31.4246C66.3971 31.4246 68.2773 31.0257 69.641 30.228C71.0051 29.4303 71.9552 28.2163 72.4928 26.5861C73.0712 24.9212 73.3607 22.7187 73.3607 19.9786V4.11018L68.3396 3.27773V0.728387H83.0929V3.27773L78.0719 4.11018V19.9786C78.0719 23.5511 77.617 26.43 76.7083 28.6151C75.799 30.8003 74.1873 32.4478 71.873 33.5578C69.5996 34.6677 66.4175 35.2226 62.3266 35.2226C58.3593 35.2226 55.2802 34.685 53.0899 33.6098C50.9409 32.5346 49.4325 30.9044 48.5647 28.7192C47.6968 26.5341 47.2629 23.6205 47.2629 19.9786V4.05815L42.1797 3.22571ZM83.5881 31.9969L87.5555 31.2165L100.883 0.416221H105.222L119.232 31.2165L123.323 31.9969V34.4422H107.206V31.9969L111.793 31.2165L111.607 30.176L109.251 24.8692H95.0562L92.8246 30.228L92.7006 31.2165L97.5358 31.9969V34.4422H83.5881V31.9969ZM107.95 21.5394L102.433 8.8447L102.185 8.06429L101.999 7.90817L101.689 8.94875L96.4198 21.5394H107.95ZM138.267 35.0666C135.664 35.0666 133.205 34.7891 130.891 34.2341C128.576 33.6445 126.923 33.0028 125.931 32.3091V24.3489H129.589L130.643 29.6037C131.51 30.1933 132.647 30.6963 134.052 31.1125C135.457 31.494 136.759 31.6848 137.957 31.6848C140.891 31.6848 142.999 31.2512 144.28 30.3841C145.561 29.517 146.202 28.1122 146.202 26.1698C146.202 25.06 145.892 24.1408 145.272 23.4124C144.652 22.684 143.805 22.077 142.73 21.5914C141.656 21.0712 140.086 20.4642 138.019 19.7705C135.168 18.8686 133.019 18.1229 131.572 17.5333C130.126 16.9089 128.824 15.9725 127.667 14.7238C126.551 13.4404 125.993 11.7582 125.993 9.67715C125.993 6.76358 127.212 4.42234 129.651 2.65341C132.13 0.88447 135.457 0 139.631 0C141.615 0 143.702 0.13874 145.892 0.416221C148.082 0.693702 149.632 0.988524 150.541 1.30069V9.67715H147.132L145.954 4.57843C145.871 4.54374 145.272 4.35297 144.156 4.00612C143.082 3.65927 141.553 3.48585 139.569 3.48585C136.8 3.48585 134.878 3.90207 133.804 4.73452C132.73 5.53227 132.193 6.69423 132.193 8.22036C132.193 9.39965 132.585 10.3708 133.37 11.1339C134.196 11.897 135.127 12.4866 136.16 12.9028C137.234 13.2844 138.97 13.8567 141.367 14.6197C143.681 15.3828 145.582 16.1459 147.07 16.9089C148.599 17.672 149.838 18.6952 150.789 19.9786C151.781 21.2272 152.277 22.8054 152.277 24.7131C152.277 27.141 151.595 29.1354 150.231 30.6963C148.867 32.2224 147.132 33.3323 145.024 34.026C142.917 34.7197 140.664 35.0666 138.267 35.0666ZM154.114 31.9969L158.081 31.2165L171.409 0.416221H175.748L189.758 31.2165L193.849 31.9969V34.4422H177.732V31.9969L182.319 31.2165L182.133 30.176L179.777 24.8692H165.582L163.35 30.228L163.226 31.2165L168.061 31.9969V34.4422H154.114V31.9969ZM178.476 21.5394L172.958 8.8447L172.71 8.06429L172.524 7.90817L172.214 8.94875L166.945 21.5394H178.476ZM196.271 31.9969L201.354 31.0604V4.05815L196.271 3.17368V0.728387H213.814C217.947 0.728387 221.191 1.42209 223.547 2.80949C225.902 4.19689 227.08 6.39941 227.08 9.41698C227.08 12.1224 226.295 14.2208 224.724 15.7123C223.195 17.1691 221.129 18.3657 218.525 19.3022L226.894 31.0604L231.233 31.9969V34.4422H223.918C222.306 34.4422 221.15 33.9046 220.447 32.8294L212.264 20.3948H207.739V31.0604L212.822 31.9969V34.4422H196.271V31.9969ZM211.024 17.1691C213.793 17.1691 216.005 16.5274 217.657 15.2441C219.352 13.9607 220.199 12.2265 220.199 10.0413C220.199 7.71744 219.476 6.13924 218.029 5.30679C216.583 4.43969 214.64 4.00612 212.202 4.00612C210.797 4.00612 209.309 4.07549 207.739 4.21423V17.1691H211.024Z" fill="white" fill-opacity="0.8"/>
<path d="M8.77157 66.3612L11.2822 65.9453V52.3919H7.15988L6.44697 55.2013H4.77325V50.7529H21.0146V55.2013H19.3099L18.628 52.3919H14.5057V65.9453L17.0162 66.3612V67.6099H8.77157V66.3612ZM29.1307 65.9192V52.418L26.5891 51.9755V50.7529H41.1567V55.2013H39.452L38.77 52.3397H34.8647L32.3231 52.5218V58.245H36.6934L37.2203 56.6321H38.6151V61.4708H37.2203L36.6934 59.7797H32.3231V65.7888C33.129 65.9104 34.0485 65.9709 35.0817 65.9709H39.018L39.7619 63.0837H41.4356V67.6099H26.5891V66.3873L29.1307 65.9192ZM63.9748 62.6412V66.8037C63.0451 67.133 62.0741 67.4017 61.0612 67.6099C60.0698 67.8353 58.7574 67.948 57.1253 67.948C54.0462 67.948 51.7423 67.2196 50.2132 65.7632C48.6841 64.3063 47.9196 62.182 47.9196 59.3898C47.9196 57.7592 48.3225 56.2595 49.1284 54.8892C49.9343 53.5018 51.0708 52.4091 52.5378 51.6117C54.0256 50.7962 55.7302 50.3887 57.6519 50.3887C58.9333 50.3887 60.1006 50.4581 61.1544 50.5969C62.229 50.7357 63.1278 50.9178 63.8507 51.1432V55.4095H62.084L61.4334 52.574C60.1938 52.2792 58.892 52.132 57.5278 52.132C56.0815 52.132 54.9245 52.3746 54.0566 52.86C53.2094 53.3457 52.5895 54.1086 52.1969 55.1496C51.825 56.1901 51.639 57.5776 51.639 59.3116C51.639 61.6008 52.1452 63.3352 53.1577 64.5145C54.1909 65.6938 55.6784 66.2834 57.621 66.2834C59.15 66.2834 60.1833 66.1446 60.7204 65.8671C61.2575 65.5895 61.5365 65.4423 61.5574 65.4251L62.2081 62.6412H63.9748ZM70.7736 66.3612L73.3155 65.9453V52.418L70.7736 52.0016V50.7529H79.0496V52.0016L76.5076 52.418V58.1411H85.4342V52.418L82.8928 52.0016V50.7529H91.1683V52.0016L88.6269 52.418V65.9453L91.1683 66.3612V67.6099H82.8928V66.3612L85.4342 65.9453V59.754H76.5076V65.9453L79.0496 66.3612V67.6099H70.7736V66.3612ZM97.9207 67.6099V66.4134L100.184 65.9709V52.3919L98.1689 52.0277V50.7529H103.438L112.705 63.0837L113.046 63.5518H113.263V52.3919L111.032 51.9499V50.7529H117.757V51.9499L115.495 52.3919V67.6099H112.365L102.942 55.1752L102.632 54.7332H102.415V65.9709L104.678 66.4134V67.6099H97.9207ZM133.303 68.0002C130.286 68.0002 127.972 67.2545 126.36 65.7632C124.769 64.2714 123.973 62.1732 123.973 59.4676C123.973 57.7508 124.366 56.2073 125.151 54.8371C125.957 53.4501 127.114 52.3658 128.623 51.5857C130.152 50.7878 131.949 50.3887 134.016 50.3887C136.867 50.3887 139.078 51.1432 140.648 52.6522C142.24 54.1436 143.035 56.2073 143.035 58.8435C143.035 60.6124 142.674 62.1904 141.95 63.5779C141.248 64.9481 140.163 66.0319 138.696 66.8298C137.249 67.6099 135.452 68.0002 133.303 68.0002ZM133.923 66.3095C135.803 66.3095 137.167 65.7455 138.014 64.6184C138.882 63.474 139.316 61.7307 139.316 59.3898C139.316 57.5166 139.088 56.0513 138.634 54.9931C138.179 53.9182 137.528 53.1725 136.681 52.7561C135.855 52.3397 134.811 52.132 133.551 52.132C132.27 52.132 131.216 52.3052 130.389 52.6522C129.563 52.9988 128.901 53.6839 128.406 54.7071C127.93 55.7132 127.693 57.1957 127.693 59.1556C127.693 61.7051 128.199 63.5346 129.212 64.6445C130.244 65.7543 131.815 66.3095 133.923 66.3095ZM149.582 66.3873L152.124 65.9192V52.418L149.582 51.9755V50.7529H158.043V52.0537L155.316 52.4701V65.8149L157.919 66.0231H161.453L162.197 63.1876H163.871V67.6099H149.582V66.3873ZM178.638 68.0002C175.621 68.0002 173.307 67.2545 171.695 65.7632C170.104 64.2714 169.308 62.1732 169.308 59.4676C169.308 57.7508 169.701 56.2073 170.486 54.8371C171.292 53.4501 172.449 52.3658 173.957 51.5857C175.486 50.7878 177.284 50.3887 179.351 50.3887C182.202 50.3887 184.413 51.1432 185.983 52.6522C187.574 54.1436 188.37 56.2073 188.37 58.8435C188.37 60.6124 188.008 62.1904 187.285 63.5779C186.583 64.9481 185.498 66.0319 184.031 66.8298C182.585 67.6099 180.786 68.0002 178.638 68.0002ZM179.257 66.3095C181.138 66.3095 182.502 65.7455 183.349 64.6184C184.217 63.474 184.651 61.7307 184.651 59.3898C184.651 57.5166 184.424 56.0513 183.969 54.9931C183.514 53.9182 182.863 53.1725 182.016 52.7561C181.19 52.3397 180.146 52.132 178.886 52.132C177.604 52.132 176.551 52.3052 175.724 52.6522C174.898 52.9988 174.236 53.6839 173.741 54.7071C173.265 55.7132 173.028 57.1957 173.028 59.1556C173.028 61.7051 173.534 63.5346 174.546 64.6445C175.58 65.7543 177.15 66.3095 179.257 66.3095ZM205.703 60.3781V59.1556H212.522V60.5081L211.158 60.7945V67.6099H209.826L208.895 66.9076H208.524C207.242 67.6015 205.621 67.948 203.658 67.948C197.686 67.948 194.7 65.1125 194.7 59.4415C194.7 57.742 195.103 56.2073 195.909 54.8371C196.735 53.4501 197.903 52.3658 199.411 51.5857C200.94 50.7878 202.727 50.3887 204.773 50.3887C206.158 50.3887 207.387 50.4758 208.461 50.649C209.536 50.8051 210.342 50.9783 210.879 51.1693V55.4356H209.143L208.306 52.574C207.253 52.2792 205.982 52.132 204.494 52.132C202.304 52.132 200.744 52.7039 199.814 53.8488C198.884 54.9931 198.419 56.762 198.419 59.1556C198.419 61.618 198.884 63.4219 199.814 64.5662C200.744 65.711 202.283 66.2834 204.432 66.2834C205.238 66.2834 205.9 66.2313 206.416 66.1274C206.932 66.0059 207.47 65.8326 208.027 65.6072V60.8462L205.703 60.3781ZM222.548 66.3612L225.059 65.9453V61.4447L218.984 52.3397L217.031 51.9238V50.7529H224.842V51.9238L222.61 52.3397V52.7822L226.888 59.5719H227.291L231.506 52.73V52.3397L229.119 51.9238V50.7529H236V51.9238L234.048 52.3658L228.282 61.2105V65.9453L230.793 66.3612V67.6099H222.548V66.3612Z" fill="white" fill-opacity="0.8"/>
</g>
<defs>
<clipPath id="clip0">
<rect width="236" height="68" fill="white"/>
</clipPath>
</defs>
</svg>
